<?xml version="1.0" encoding="iso-8859-1"?>
<!-- Uploaded to: SVG Repo, www.svgrepo.com, Generator: SVG Repo Mixer Tools -->
<svg height="800px" width="800px" version="1.1" id="Layer_1" xmlns="http://www.w3.org/2000/svg" xmlns:xlink="http://www.w3.org/1999/xlink" 
	 viewBox="0 0 512 512" xml:space="preserve">
<g transform="translate(1 1)">
	<path style="fill:#FFE100;" d="M289.133,118.467h-68.267V24.6c0-9.387,7.68-17.067,17.067-17.067h34.133
		c9.387,0,17.067,7.68,17.067,17.067V118.467z"/>
	<path style="fill:#63D3FD;" d="M331.8,169.667H178.2v-34.133c0-9.387,7.68-17.067,17.067-17.067h119.467
		c9.387,0,17.067,7.68,17.067,17.067V169.667z"/>
	<path style="fill:#FFA800;" d="M272.067,7.533H255c9.387,0,17.067,7.68,17.067,17.067v93.867h17.067V24.6
		C289.133,15.213,281.453,7.533,272.067,7.533"/>
	<path style="fill:#3DB9F9;" d="M314.733,118.467h-17.067c9.387,0,17.067,7.68,17.067,17.067v34.133H331.8v-34.133
		C331.8,126.147,324.12,118.467,314.733,118.467"/>
	<g>
		<path style="fill:#FFFFFF;" d="M237.933,7.533H255c-9.387,0-17.067,7.68-17.067,17.067v93.867h-17.067V24.6
			C220.867,15.213,228.547,7.533,237.933,7.533"/>
		<path style="fill:#FFFFFF;" d="M195.267,118.467h17.067c-9.387,0-17.067,7.68-17.067,17.067v34.133H178.2v-34.133
			C178.2,126.147,185.88,118.467,195.267,118.467"/>
	</g>
	<path style="fill:#FDCC00;" d="M365.933,502.467H144.067c-9.387,0-17.067-7.68-17.067-17.067V186.733
		c0-9.387,7.68-17.067,17.067-17.067h221.867c9.387,0,17.067,7.68,17.067,17.067V485.4C383,494.787,375.32,502.467,365.933,502.467"
		/>
	<polygon style="fill:#FFE100;" points="127,408.6 255,502.467 383,408.6 383,255 255,169.667 127,255 	"/>
	<path style="fill:#FFA800;" d="M365.933,169.667h-25.6c9.387,0,17.067,7.68,17.067,17.067V485.4c0,9.387-7.68,17.067-17.067,17.067
		h25.6c9.387,0,17.067-7.68,17.067-17.067V186.733C383,177.347,375.32,169.667,365.933,169.667"/>
	<path style="fill:#FFFFFF;" d="M144.067,169.667h25.6c-9.387,0-17.067,7.68-17.067,17.067V485.4c0,9.387,7.68,17.067,17.067,17.067
		h-25.6c-9.387,0-17.067-7.68-17.067-17.067V186.733C127,177.347,134.68,169.667,144.067,169.667"/>
	<path d="M365.933,511H144.067c-14.507,0-25.6-11.093-25.6-25.6V186.733c0-14.507,11.093-25.6,25.6-25.6h221.867
		c14.507,0,25.6,11.093,25.6,25.6V485.4C391.533,499.907,380.44,511,365.933,511z M144.067,178.2c-5.12,0-8.533,3.413-8.533,8.533
		V485.4c0,5.12,3.413,8.533,8.533,8.533h221.867c5.12,0,8.533-3.413,8.533-8.533V186.733c0-5.12-3.413-8.533-8.533-8.533H144.067z"
		/>
	<path d="M331.8,178.2H178.2c-5.12,0-8.533-3.413-8.533-8.533v-34.133c0-14.507,11.093-25.6,25.6-25.6h119.467
		c14.507,0,25.6,11.093,25.6,25.6v34.133C340.333,174.787,336.92,178.2,331.8,178.2z M186.733,161.133h136.533v-25.6
		c0-5.12-3.413-8.533-8.533-8.533H195.267c-5.12,0-8.533,3.413-8.533,8.533V161.133z"/>
	<path d="M289.133,127h-68.267c-5.12,0-8.533-3.413-8.533-8.533V24.6c0-14.507,11.093-25.6,25.6-25.6h34.133
		c14.507,0,25.6,11.093,25.6,25.6v93.867C297.667,123.587,294.253,127,289.133,127z M229.4,109.933h51.2V24.6
		c0-5.12-3.413-8.533-8.533-8.533h-34.133c-5.12,0-8.533,3.413-8.533,8.533V109.933z"/>
	<path d="M255,511c-1.707,0-3.413-0.853-5.12-1.707l-128-93.867c-1.707-1.707-3.413-4.267-3.413-6.827V255
		c0-2.56,1.707-5.12,3.413-6.827l128-85.333c2.56-1.707,6.827-1.707,9.387,0l128,85.333c2.56,1.707,3.413,4.267,3.413,6.827v153.6
		c0,2.56-1.707,5.12-3.413,6.827l-128,93.867C259.267,510.147,256.707,511,255,511z M135.533,404.333L255,492.227l119.467-87.893
		V259.267L255,179.907l-119.467,79.36V404.333z"/>
	<path d="M246.467,41.667c0-5.12,3.413-8.533,8.533-8.533s8.533,3.413,8.533,8.533S260.12,50.2,255,50.2
		S246.467,46.787,246.467,41.667"/>
	<path d="M289.133,314.733h-68.267c-5.12,0-8.533-3.413-8.533-8.533s3.413-8.533,8.533-8.533h68.267c5.12,0,8.533,3.413,8.533,8.533
		S294.253,314.733,289.133,314.733z"/>
	<path d="M314.733,357.4H195.267c-5.12,0-8.533-3.413-8.533-8.533c0-5.12,3.413-8.533,8.533-8.533h119.467
		c5.12,0,8.533,3.413,8.533,8.533C323.267,353.987,319.853,357.4,314.733,357.4z"/>
</g>
</svg>